<svg id="Layer_2" data-name="Layer 2" xmlns="http://www.w3.org/2000/svg" xmlns:xlink="http://www.w3.org/1999/xlink" viewBox="0 0 160 160"><defs><style>.cls-1{fill:url(#linear-gradient);}.cls-2{fill:url(#linear-gradient-2);}.cls-3{fill:none;}.cls-4{mask:url(#mask);}.cls-5{clip-path:url(#clip-path);}.cls-6{fill:url(#linear-gradient-3);}.cls-7{clip-path:url(#clip-path-2);}.cls-8{mask:url(#mask-2);}.cls-9{clip-path:url(#clip-path-3);}</style><linearGradient id="linear-gradient" x1="50.26" y1="100.72" x2="50.26" y2="49.84" gradientUnits="userSpaceOnUse"><stop offset="0.09" stop-opacity="0"/><stop offset="0.43" stop-color="#fff"/></linearGradient><linearGradient id="linear-gradient-2" x1="50.26" y1="-474.48" x2="50.26" y2="-525.36" gradientTransform="translate(0 626.9)" gradientUnits="userSpaceOnUse"><stop offset="0.13" stop-opacity="0"/><stop offset="0.4" stop-color="#fff"/></linearGradient><mask id="mask" x="20.01" y="49.84" width="120" height="102.69" maskUnits="userSpaceOnUse"><rect class="cls-1" x="20.53" y="49.84" width="59.47" height="50.88"/></mask><clipPath id="clip-path"><path class="cls-3" d="M35.83,99.28l-.76-.76A23.6,23.6,0,0,1,68.44,65.15l9.44,9.44a3,3,0,0,0,2.12.85V68.23l-7.32-7.32A29.59,29.59,0,0,0,27.82,99.24Z"/></clipPath><linearGradient id="linear-gradient-3" x1="20.01" y1="101.47" x2="140.01" y2="101.47" gradientUnits="userSpaceOnUse"><stop offset="0" stop-color="#f37037"/><stop offset="1" stop-color="#ee9f41"/></linearGradient><clipPath id="clip-path-2"><path class="cls-3" d="M129.17,60.91a29.62,29.62,0,0,0-41.85,0L80,68.23l-2.12,6.36a3.08,3.08,0,0,0,4.24,0l9.44-9.44a23.6,23.6,0,0,1,33.37,33.37L80,143.45l-2.12,6.36a3,3,0,0,0,4.24,0l47-47a29.59,29.59,0,0,0,0-41.85Z"/></clipPath><mask id="mask-2" x="20.01" y="50.41" width="120" height="102.13" maskUnits="userSpaceOnUse"><rect class="cls-2" x="20.53" y="101.53" width="59.47" height="50.88" transform="translate(100.53 253.95) rotate(180)"/></mask><clipPath id="clip-path-3"><path class="cls-3" d="M80,143.45,39.84,103.29l-8.52,0,46.56,46.55a3,3,0,0,0,4.24,0Z"/></clipPath></defs><g class="cls-4"><g class="cls-5"><rect class="cls-6" x="20.01" y="50.41" width="120" height="102.13"/></g></g><g class="cls-7"><rect class="cls-6" x="20.01" y="50.41" width="120" height="102.13"/></g><g class="cls-8"><g class="cls-9"><rect class="cls-6" x="20.01" y="50.41" width="120" height="102.13"/></g></g><path d="M89.08,114.83h-.16a3,3,0,0,1-2.1-1L70.69,95.39l-8.87,8.19a3.13,3.13,0,0,1-2,.8l-48.25-.21,0-6,47.06.2,10.26-9.48a3.1,3.1,0,0,1,2.2-.79,3,3,0,0,1,2.1,1l16.13,18.42,8.87-8.19a3,3,0,0,1,2-.79h0l48.25.2,0,6-47.06-.2L91.11,114A3,3,0,0,1,89.08,114.83Z"/></svg>