<svg id="Layer_2" data-name="Layer 2" xmlns="http://www.w3.org/2000/svg" xmlns:xlink="http://www.w3.org/1999/xlink" viewBox="0 0 160 160"><defs><style>.cls-1{fill:url(#linear-gradient);}.cls-2{fill:url(#linear-gradient-2);}.cls-3{fill:none;}.cls-4{clip-path:url(#clip-path);}.cls-5{fill:url(#linear-gradient-3);}.cls-6{mask:url(#mask);}.cls-7{clip-path:url(#clip-path-2);}.cls-8{mask:url(#mask-2);}.cls-9{clip-path:url(#clip-path-3);}</style><linearGradient id="linear-gradient" x1="121.56" y1="125.55" x2="121.56" y2="89.53" gradientUnits="userSpaceOnUse"><stop offset="0.59" stop-color="#fff"/><stop offset="0.64" stop-color="#e5e5e5" stop-opacity="0.9"/><stop offset="0.73" stop-color="#a1a1a1" stop-opacity="0.63"/><stop offset="0.86" stop-color="#363636" stop-opacity="0.21"/><stop offset="0.92" stop-opacity="0"/></linearGradient><linearGradient id="linear-gradient-2" x1="36.09" y1="69.57" x2="103.93" y2="69.57" gradientUnits="userSpaceOnUse"><stop offset="0.69" stop-color="#fff"/><stop offset="0.71" stop-color="#f6f6f6" stop-opacity="0.97"/><stop offset="0.75" stop-color="#dedede" stop-opacity="0.87"/><stop offset="0.8" stop-color="#b7b7b7" stop-opacity="0.72"/><stop offset="0.85" stop-color="gray" stop-opacity="0.5"/><stop offset="0.91" stop-color="#3b3b3b" stop-opacity="0.23"/><stop offset="0.96" stop-opacity="0"/></linearGradient><clipPath id="clip-path"><path class="cls-3" d="M115.68,119.87H47.38l-14-74.51a3,3,0,0,0-2.94-2.45H7v6h21l14,74.51h0a3,3,0,0,0,3,2.45h73.27a3,3,0,0,0,3-2.45Z"/></clipPath><linearGradient id="linear-gradient-3" x1="6.21" y1="84.39" x2="128.21" y2="84.39" gradientUnits="userSpaceOnUse"><stop offset="0" stop-color="#ee9f41"/><stop offset="1" stop-color="#f37037"/></linearGradient><mask id="mask" x="6.21" y="42.4" width="122" height="83.98" maskUnits="userSpaceOnUse"><rect class="cls-1" x="115.35" y="89.53" width="12.41" height="36.02"/></mask><clipPath id="clip-path-2"><path class="cls-3" d="M121.36,89.65l-5.68,30.22,2.48,6a3,3,0,0,0,3-2.45l6.35-33.77Z"/></clipPath><mask id="mask-2" x="6.21" y="42.4" width="122" height="83.98" maskUnits="userSpaceOnUse"><rect class="cls-2" x="36.09" y="63.03" width="67.84" height="13.08"/></mask><clipPath id="clip-path-3"><polygon class="cls-3" points="38.51 72.68 103.79 72.68 103.79 66.68 37.38 66.68 38.51 72.68"/></clipPath></defs><g class="cls-4"><rect class="cls-5" x="6.21" y="42.4" width="122" height="83.98"/></g><circle cx="51.66" cy="142.69" r="8"/><circle cx="111.7" cy="142.69" r="8"/><polygon points="143.72 66.68 126.75 66.68 126.75 49.72 120.75 49.72 120.75 66.68 103.79 66.68 103.79 72.68 120.75 72.68 120.75 89.64 126.75 89.64 126.75 72.68 143.72 72.68 143.72 66.68"/><g class="cls-6"><g class="cls-7"><rect class="cls-5" x="6.21" y="42.4" width="122" height="83.98"/></g></g><g class="cls-8"><g class="cls-9"><rect class="cls-5" x="6.21" y="42.4" width="122" height="83.98"/></g></g></svg>